<svg xmlns="http://www.w3.org/2000/svg" viewBox="0 0 570.6 586" fill="white"><path d="M448.5 414.8c-37.5-2.4-75.1-4.8-112.6-7.4-2.4-.2-3.9.6-5.4 2.4-24.5 31.2-49.1 62.2-73.6 93.3-5.2 6.6-12.5 7.7-18.2 2.5-2.5-2.3-3-5.4-3.7-8.4-7.3-28.7-14.6-57.3-21.9-86-.3-1.3-.1-3.2-1.5-3.5-1.4-.3-2.2 1.5-3.1 2.4-46.7 46.6-93.3 93.2-140 139.8-9.7 9.7-19.4 19.5-29.2 29-11.7 11.3-29.1 8.7-36.8-5.3-4.5-8.2-2.8-19 4.4-26.2 14.3-14.5 28.7-28.8 43.1-43.2 28.3-28.2 56.6-56.5 84.8-84.7l47.7-47.7c.8-.8 1.8-1.4 2.7-2 51.3-33.2 88.9-77.9 112.8-134.1 4.7-11 8.8-22.3 11.8-33.9.7-2.8 2.2-4 4.9-4.8 37.5-10.5 75-21.1 112.6-31.7 2.4-.7 4.8-1.5 7.4-1.1 7.6 1.1 11.7 8.1 8.9 15.8-2.7 7.5-5.8 14.9-8.8 22.3-11.9 29.7-23.8 59.5-35.8 89.2-1 2.6-.5 4.4.9 6.5 21.9 32.6 43.6 65.2 65.5 97.7 3 4.5 4.5 8.9 1.6 13.9s-7.6 6.1-12.9 5.6c-1.9-.2-3.8-.2-5.6-.4z"/><path d="M233.3 227.2v-26.6c-.1-9.7-6.2-15.9-15.9-16-6.5 0-13-.1-19.5 0-2.4 0-3.6-.5-3.5-3.3.8-18.1 1.4-36.2 2.3-54.2.5-9.2 10.3-14.1 17.7-8.7 6.3 4.5 12 9.8 18 14.6 1.3 1 1.2 2.3 1.2 3.7 0 5.6-.1 11.2 0 16.8.1 6.8 3.7 10.4 10.5 10.5 7.5.1 15 .1 22.5 0 2.3 0 4 .6 5.8 2.1 8.9 7.5 17.8 14.9 26.9 22.2 2.2 1.7 2.4 3.2 1.3 5.7-26.2 59-67.3 104.8-122.9 137.7-13.4 7.9-27.4 14.3-41.8 20.1-2.4 1-4.6 1.1-7.2.2-12.7-4.8-25.6-9.4-38.3-14.1-6.6-2.5-9.7-7.2-8.8-13 .6-3.6 2.6-6.1 5.6-8 24.5-15.5 49-30.9 73.5-46.4 1.6-1 3.3-1.1 5-1.1h49.9c12.3 0 17.8-5.5 17.8-17.9 0-8.1 0-16.2-.1-24.3z"/><path d="M190.6 258.1h-25.5c-4.4 0-5.4-.9-5.4-5.2 0-17.2-.1-34.4 0-51.7 0-4 1.2-5.2 5.1-5.2h52.1c3.9 0 5.1 1.3 5.1 5.3V253c0 4.1-1.1 5.1-5.1 5.1h-26.3zM101.3 137.9c0-6.9.1-13.7 0-20.6-.1-3.4 1.1-5.1 4.8-5 14.1.1 28.2.1 42.3 0 3.6 0 4.9 1.6 4.9 5-.1 14-.1 27.9 0 41.9 0 3.4-1.2 5-4.8 5-14.1-.1-28.2-.1-42.3 0-3.6 0-4.9-1.5-4.8-4.9 0-7.1-.1-14.3-.1-21.4zM377.6 12.8c-.2.7-.4 2.4-.9 3.9-7.5 23.4-15 46.8-22.7 70.2-2.9 8.9-12.7 11.7-19 5.5-3.5-3.4-4.1-7.6-2.6-12.1 1.9-6 3.7-11.9 5.7-17.8 5.7-17.7 11.4-35.4 17.3-53.1 2.2-6.8 8-10 14.3-8.1 4.6 1.4 7.8 5.7 7.9 11.5zM414 544.6c-4.5.1-7.5-2.3-9.8-5.8-8-11.8-15.9-23.5-23.9-35.3-6-8.9-12.1-17.7-17.9-26.7-5-7.8-.5-16.8 8.7-17.5 5-.4 8.4 2.4 11.1 6.4 12.6 18.7 25.3 37.4 38 56.1 1.5 2.3 3.2 4.5 4.4 7 3.4 7.5-2.2 15.9-10.6 15.8zM569.6 252.7c0 5.8-3.9 10.1-10.4 11.4-8.6 1.7-17.2 3.3-25.7 4.9-15 2.8-29.9 5.6-44.9 8.4-1 .2-2 .4-3 .5-6.5.9-12-2.8-13.2-8.8-1.2-6.3 2.4-12 9-13.3 18.1-3.5 36.3-6.9 54.4-10.3 6.6-1.2 13.2-2.6 19.9-3.7 7.7-1.3 13.9 3.7 13.9 10.9zM109.4 394.8c-.3 4.9-3.2 8.3-7.9 10.5-20.6 9.8-41.3 19.6-61.9 29.4-1.9.9-3.7 2-5.7 2.8-6 2.3-12.3-.3-14.8-5.8-2.6-5.6-.3-11.9 5.6-14.8 8.6-4.3 17.3-8.4 26-12.5L93 384.3c7.8-3.7 16.6 1.8 16.4 10.5zM98.4 197.4c0 9.6-8.6 14.8-16.6 10.9-12.1-5.9-24.2-11.9-36.2-17.9C35 185.1 24.5 180 14 174.6c-5.1-2.6-7.3-7.7-6-12.8 1.4-5.3 5.9-8.7 11.3-8.6 2 0 3.9.7 5.7 1.6 22.3 11.1 44.7 22.3 67 33.5 4.2 2.1 6.2 5.6 6.4 9.1zM224.4 45.6h16.9c2.7 0 3.9 1.1 3.9 3.8v34.1c0 2.5-1.2 3.7-3.7 3.7H207c-2.6 0-3.5-1.4-3.5-3.8V49.3c0-2.8 1.5-3.7 4.1-3.7h16.8zM258.1 156.5c-4.4 0-8.7-.1-13.1 0-2.7.1-3.9-.8-3.9-3.6.1-9.1.1-18.2 0-27.3 0-2.6 1.1-3.6 3.6-3.5 9 0 18 0 27-.1 3.1 0 4.1 1.4 4.1 4.3-.1 8.6-.1 17.2 0 25.8.1 3.2-1 4.6-4.3 4.4-4.4-.1-8.9 0-13.4 0zM164.1 62.3v10.5c0 2.2-1 3.2-3.2 3.2h-21.3c-2.4 0-3.3-1.1-3.3-3.4.1-7 .1-13.9 0-20.9 0-2.4 1-3.3 3.4-3.3 7 0 14 .1 20.9 0 2.6 0 3.6 1.1 3.5 3.6 0 3.3.1 6.8 0 10.3z"/></svg>